<?xml version="1.0" encoding="UTF-8" standalone="no"?>
<!-- Created with Inkscape (http://www.inkscape.org/) -->

<svg
   width="200"
   height="200"
   viewBox="0 0 200 200"
   version="1.1"
   id="svg1"
   inkscape:version="1.4.3 (0d15f75, 2025-12-25)"
   sodipodi:docname="metroEvolvedLogo.svg"
   inkscape:export-filename="metroEvolvedLogo.png"
   inkscape:export-xdpi="96"
   inkscape:export-ydpi="96"
   xmlns:inkscape="http://www.inkscape.org/namespaces/inkscape"
   xmlns:sodipodi="http://sodipodi.sourceforge.net/DTD/sodipodi-0.dtd"
   xmlns="http://www.w3.org/2000/svg"
   xmlns:svg="http://www.w3.org/2000/svg">
  <sodipodi:namedview
     id="namedview1"
     pagecolor="#ffffff"
     bordercolor="#000000"
     borderopacity="0.25"
     inkscape:showpageshadow="2"
     inkscape:pageopacity="0.0"
     inkscape:pagecheckerboard="true"
     inkscape:deskcolor="#d1d1d1"
     inkscape:document-units="px"
     inkscape:zoom="2.0157702"
     inkscape:cx="28.525077"
     inkscape:cy="105.91485"
     inkscape:window-width="1467"
     inkscape:window-height="1101"
     inkscape:window-x="956"
     inkscape:window-y="86"
     inkscape:window-maximized="0"
     inkscape:current-layer="layer1" />
  <defs
     id="defs1" />
  <g
     inkscape:label="Layer 1"
     inkscape:groupmode="layer"
     id="layer1">
    <path
       style="fill:#000080;stroke-width:0.516899"
       d="m 13.88562,60.842502 c 0,0 46.404322,10.971254 69.030551,25.04172 22.626239,14.070467 28.206289,16.147298 36.891589,31.529918 11.74706,19.7059 26.74234,54.55623 52.72084,57.53768 16.29759,0.39679 23.35166,-9.56014 23.35166,-9.56014 0,0 18.77193,35.70122 -23.82591,32.78684 C 129.4565,195.26413 99.533457,157.93718 57.256769,163.20588 38.653799,165.52426 0,174.86712 0,182.28198 0,191.64331 9.2921453,200 23.683896,200 c 29.962888,0 69.701505,-91.71792 69.701505,-91.71792 0,0 11.523199,-36.150776 25.241149,-43.436734 13.71794,-7.285969 57.65846,29.674224 57.65846,29.674224 0,0 -18.54786,-14.858793 -38.94313,-14.858793 -21.11056,0 -37.910198,5.26831 -37.910198,5.26831 0,0 -7.963227,2.650507 -11.573216,-24.307567 C 84.248481,33.663447 82.526671,2.472886e-4 82.526671,2.472886e-4 c 0,0 -29.026306,-0.2866289286 -45.632249,18.6568847114 C 20.288486,37.600644 13.88562,60.842502 13.88562,60.842502 Z"
       id="path1"
       sodipodi:nodetypes="cszzcsssscscscsczc" />
  </g>
</svg>
